<svg width="32" height="32" viewBox="0 0 32 32" fill="none" xmlns="http://www.w3.org/2000/svg">
  <path d="M16.479 0.003c-3.829 0.313-7.12 2.651-8.615 6.099-0.619 1.437-0.713 2.219-0.713 5.925 0 1.531-0.047 2.781-0.099 2.781-0.197 0-1.047-0.328-1.531-0.583-0.287-0.156-0.713-0.313-0.947-0.359-0.484-0.089-1.245 0.197-1.568 0.619-0.38 0.484-0.484 0.995-0.287 1.437 0.099 0.24 0.193 0.333 0.568 0.536 1.093 0.583 2.063 1.437 2.365 2.063 0.287 0.583 0.197 1.197-0.24 1.719-1.292 1.531-3.932 2.365-7.068 2.219l-0.844-0.047v0.995c0.193 1.292 1.292 2.729 2.729 3.557 0.667 0.38 0.901 0.583 0.901 0.76 0 0.333-0.24 1.531-0.427 2.167-0.099 0.333-0.193 0.667-0.193 0.76 0 0.427 0.667 0.901 1.437 1.047 0.995 0.193 2.365 0.333 3.167 0.333 0.667 0 0.76 0.047 1.047 0.427 0.427 0.583 1.292 1.292 2.063 1.719 1.677 0.901 3.557 1.197 5.573 0.901 1.531-0.24 3.167-0.995 4.417-2.063 0.427-0.38 0.901-0.713 1.047-0.76 0.193-0.047 0.667-0.099 1.093-0.099 0.76 0 2.167-0.193 3.073-0.427 0.667-0.193 1.437-0.667 1.437-0.901 0-0.047-0.099-0.427-0.24-0.853-0.24-0.76-0.427-1.719-0.427-2.167 0-0.24 0.099-0.333 0.667-0.667 1.437-0.807 2.729-2.365 2.927-3.557v-0.901l-0.76 0.047c-2.927 0.099-5.333-0.667-6.625-2.167-0.484-0.536-0.573-1.197-0.24-1.865 0.287-0.573 1.292-1.437 2.365-2.063 0.427-0.24 0.484-0.287 0.573-0.536 0.24-0.667-0.047-1.531-0.667-1.917-0.333-0.193-0.427-0.24-0.901-0.193-0.287 0.047-0.667 0.156-0.901 0.287-0.484 0.24-1.385 0.573-1.531 0.573-0.047 0-0.099-1.197-0.099-2.635 0-3.932-0.099-4.745-0.807-6.292-1.583-3.448-4.833-5.745-8.615-6.052-0.427-0.047-0.901-0.047-1.292-0.047z" fill="currentColor"/>
</svg>