
<svg xmlns="http://www.w3.org/2000/svg" viewBox="0 0 24 24" fill="#000000">
  <path d="M12 2c-.814 0-3.487.086-4.749 3.015-.399.94-.399 2.508-.399 3.725v.006c0 .257-.01.504-.02.742-.288.063-1.127-.135-1.343-.24-.279-.137-.586-.202-.907-.202-.507 0-1.017.165-1.355.454-.463.394-.505.867-.481 1.089.05.46.366.809.884 1.079.133.07.367.162.697.27.272.089.683.224.789.497.155.397-.193 1.203-.967 2.306C2.878 16.06 2 17.419 2 17.964c0 .146.036.266.109.359.239.309.936.439 1.759.439.349 0 .721-.031 1.074-.092.451-.078.939-.346 1.476-.346.608 0 1.139.279 1.664.279.772 0 1.303-.811 1.376-.917h.014c.014.005.026.009.038.013l-.001.164c-.103 2.375-.233 5.345 1.604 6.699.532.311 1.164.468 1.887.468.723 0 1.354-.156 1.887-.468 1.837-1.354 1.707-4.324 1.604-6.699l-.001-.164c.013-.004.025-.008.038-.013h.014c.073.106.604.917 1.376.917.524 0 1.056-.279 1.664-.279.537 0 1.025.269 1.476.346.353.061.725.092 1.074.092.823 0 1.52-.13 1.759-.439.073-.093.109-.213.109-.359 0-.545-.878-1.904-2.171-4.215-.774-1.103-1.122-1.909-.967-2.306.106-.273.517-.408.789-.497.33-.108.564-.2.697-.27.518-.27.834-.619.884-1.079.024-.222-.018-.695-.481-1.089-.338-.289-.848-.454-1.355-.454-.321 0-.628.065-.907.202-.215.105-1.056.303-1.343.24-.01-.238-.02-.485-.02-.742v-.006c0-1.217 0-2.785-.399-3.725C15.487 2.086 12.814 2 12 2z"/>
</svg>
