
<svg xmlns="http://www.w3.org/2000/svg" viewBox="0 0 24 24" fill="currentColor">
  <path d="M12.206 3c.262.003.52.026.773.07 1.324.229 2.378.836 3.214 1.845.482.583.814 1.258.96 2.024.088.462.097.606.108 1.753.006.825.016 1.043.059 1.205.138.518.442.87.923 1.066.245.1.494.137 1.41.213.894.074 1.28.138 1.662.276.63.229 1.014.562 1.163 1.008.07.207.072.605.006.8-.207.613-.86 1.115-1.85 1.424-.11.034-.458.12-.774.191-.766.171-1.104.276-1.4.435-.562.3-.873.71-.873 1.147 0 .147.021.285.064.424.238.77.992 1.552 2.222 2.308.405.249.75.426 1.2.616.75.317 1.19.614 1.453.984.265.37.265.82 0 1.19-.38.529-1.295.903-2.603 1.065-.22.027-.272.139-.37.783-.038.251-.082.486-.097.522-.053.123-.167.181-.525.264-.543.127-1.309.127-2.18.002-.49-.07-.961-.195-1.48-.392-.905-.344-1.515-.774-2.01-1.422-.482-.63-.98-1.058-1.542-1.32-.425-.198-.883-.313-1.466-.37-.615-.06-1.105-.032-1.593.094-.142.037-.294.08-.337.098-.147.058-.258.276-.337.66-.047.227-.088.435-.094.463-.025.123-.17.22-.472.312-.548.167-1.314.167-2.185.002-.358-.068-.472-.126-.525-.25-.015-.035-.06-.27-.097-.522-.099-.643-.15-.755-.37-.782-1.31-.162-2.223-.536-2.603-1.066-.265-.37-.265-.818 0-1.189.262-.37.702-.667 1.452-.984.45-.19.795-.367 1.2-.616 1.23-.756 1.985-1.538 2.223-2.308.043-.139.064-.277.064-.424 0-.437-.311-.847-.873-1.147-.297-.16-.635-.264-1.4-.435-.317-.071-.664-.157-.774-.191-.99-.31-1.644-.811-1.85-1.424-.067-.196-.065-.593.005-.8.15-.446.533-.78 1.163-1.008.383-.138.769-.202 1.662-.276.917-.076 1.166-.113 1.41-.213.482-.196.786-.548.924-1.066.043-.162.053-.38.059-1.205.01-1.147.02-1.291.108-1.753.145-.766.477-1.441.96-2.024.835-1.01 1.89-1.616 3.213-1.845.253-.044.512-.067.773-.07.175-.002.35-.002.525 0 .175.002.35.002.525 0z"/>
</svg>
