
<svg xmlns="http://www.w3.org/2000/svg" viewBox="0 0 24 24" fill="currentColor">
  <path d="M12.031 2c.521.007 2.674.106 4.073 1.43.485.457 1.095 1.297 1.303 2.17.115.469.199 1.235.246 2.086.023.4.038.759.05.973a.625.625 0 00.138.334c.063.079.252.241.806.397.547.155 1.438.295 2.464.62.76.24 1.245.673 1.437 1.29.149.487.103.99-.134 1.436-.387.724-1.034 1.136-1.74 1.4l-.072.027c-.2.072-.38.137-.52.19-.618.234-.961.44-1.138.648a.738.738 0 00-.157.255.59.59 0 00.045.445c.19.382.646.948 1.373 1.647.549.528 1.141.95 1.66 1.26.342.204.65.407.85.6.45.434.537.947.45 1.37-.146.711-.71 1.304-1.66 1.714a4.57 4.57 0 01-.877.285 1.088 1.088 0 00-.083.408c-.031.316-.068.63-.114.93-.053.357-.34.695-.869.908-.606.245-1.335.37-2.005.37-.438 0-.872-.06-1.286-.121-.604-.088-1.194-.305-1.845-.6-.89-.403-1.601-.861-2.157-1.396a.838.838 0 00-.518-.207c-.39-.02-.783-.093-1.165-.215-.382-.122-.757-.214-1.123-.214-.37 0-.745.092-1.128.214-.381.122-.775.194-1.164.215a.837.837 0 00-.518.207c-.556.535-1.267.993-2.157 1.396-.651.295-1.241.512-1.845.6a7.61 7.61 0 01-1.286.121c-.67 0-1.399-.125-2.005-.37-.53-.213-.816-.551-.869-.907-.046-.301-.083-.615-.114-.93a1.088 1.088 0 00-.083-.409 4.57 4.57 0 01-.877-.285c-.95-.41-1.514-1.003-1.66-1.714-.087-.423 0-.936.45-1.37.2-.193.508-.396.85-.6.519-.31 1.111-.732 1.66-1.26.727-.699 1.183-1.265 1.373-1.647a.59.59 0 00.045-.445.738.738 0 00-.157-.255c-.177-.208-.52-.414-1.138-.648-.14-.053-.32-.118-.52-.19l-.072-.027c-.706-.264-1.353-.676-1.74-1.4-.237-.446-.283-.949-.134-1.436.192-.617.677-1.05 1.437-1.29 1.026-.325 1.917-.465 2.464-.62.554-.156.743-.318.806-.397a.625.625 0 00.138-.334c.012-.214.027-.573.05-.973.047-.85.131-1.617.246-2.086.208-.873.818-1.713 1.303-2.17C9.324 2.106 11.477 2.007 11.998 2h.033z"/>
</svg>
